<?xml version="1.0" encoding="iso-8859-1"?>
<!-- Uploaded to: SVG Repo, www.svgrepo.com, Generator: SVG Repo Mixer Tools -->
<svg version="1.1" id="Layer_1" xmlns="http://www.w3.org/2000/svg" xmlns:xlink="http://www.w3.org/1999/xlink" 
	 viewBox="0 0 512 512" xml:space="preserve">
<path d="M473.56,397.58V103.228c0-7.04-5.76-12.8-12.8-12.8H51.32c-7.04,0-12.8,5.76-12.8,12.8V397.58
	C38.528,397.58,474.632,397.58,473.56,397.58z"/>
<rect x="54.52" y="106.428" style="fill:#E04F5F;" width="403.04" height="275.152"/>
<rect y="397.58" style="fill:#D8D8D8;" width="511.912" height="8"/>
<polygon style="fill:#C9C9C9;" points="486.408,421.572 25.688,421.572 0.088,405.58 512,405.58 "/>
<g style="opacity:0.7;">
	<path style="fill:#FFFFFF;" d="M298.992,397.58H212.92c0.816,4.488,4.824,8,9.832,8h66.4
		C294.168,405.58,298.176,402.068,298.992,397.58z"/>
</g>
<g>
	<path style="fill:#FFFFFF;" d="M255.36,355.252c-61.208,0-111.016-49.808-111.016-111.016S194.152,133.22,255.36,133.22
		s111.008,49.808,111.008,111.016S316.576,355.252,255.36,355.252z M255.36,141.22c-56.808,0-103.016,46.208-103.016,103.016
		S198.56,347.252,255.36,347.252s103.008-46.208,103.008-103.016S312.16,141.22,255.36,141.22z"/>
	<rect x="251.36" y="133.996" style="fill:#FFFFFF;" width="8" height="214.84"/>
	<rect x="148.184" y="240.244" style="fill:#FFFFFF;" width="216.48" height="8"/>
	<path style="fill:#FFFFFF;" d="M255.232,216.948c-55.496,0-78.296-47.56-78.52-48.048l7.248-3.384
		c0.832,1.776,20.976,43.432,71.272,43.432c50.272,0,69.904-41.192,70.72-42.944l7.264,3.336
		C332.992,169.82,310.736,216.948,255.232,216.948z"/>
	<path style="fill:#FFFFFF;" d="M183.952,322.956l-7.248-3.384c0.224-0.488,23.032-48.048,78.52-48.048
		c55.504,0,77.768,47.136,77.984,47.608l-7.264,3.336c-0.816-1.752-20.448-42.944-70.72-42.944
		C204.936,279.524,184.784,321.18,183.952,322.956z"/>
	<path style="fill:#FFFFFF;" d="M250.336,354.98c-2.112-1.928-51.672-48.016-51.672-110.744c0-62.8,50.68-107.16,52.832-109.016
		l5.216,6.064c-0.496,0.432-50.056,43.88-50.056,102.952c0,59.24,48.584,104.392,49.08,104.832L250.336,354.98z"/>
	<path style="fill:#FFFFFF;" d="M260.376,354.98l-5.408-5.904c0.496-0.448,49.08-45.696,49.08-104.832
		c0-59.072-49.552-102.52-50.056-102.952l5.216-6.064c2.16,1.856,52.832,46.216,52.832,109.016
		C312.048,306.964,262.488,353.052,260.376,354.98z"/>
</g>
</svg>